Coordinates
version=1
nRows=10
nColumns=40
inDegrees=yes

Units are S.I. units (second, meters, Newtons, ...)
Angles are in degrees.

endheader
time	pelvis_tilt	pelvis_list	pelvis_rotation	pelvis_tx	pelvis_ty	pelvis_tz	hip_flexion_r	hip_adduction_r	hip_rotation_r	knee_angle_r	knee_angle_r_beta	ankle_angle_r	subtalar_angle_r	mtp_angle_r	hip_flexion_l	hip_adduction_l	hip_rotation_l	knee_angle_l	knee_angle_l_beta	ankle_angle_l	subtalar_angle_l	mtp_angle_l	lumbar_extension	lumbar_bending	lumbar_rotation	arm_flex_r	arm_add_r	arm_rot_r	elbow_flex_r	pro_sup_r	wrist_flex_r	wrist_dev_r	arm_flex_l	arm_add_l	arm_rot_l	elbow_flex_l	pro_sup_l	wrist_flex_l	wrist_dev_l
     18.49500000	     -1.80604529	     -3.53919716	     -1.70423772	      1.07905650	      0.93218494	      0.47053663	     16.45013773	     -0.48636422	    -10.42575373	     19.42367271	     19.42367271	      7.25768537	      3.03335821	     -1.73356970	      3.04580588	    -10.12152392	     -9.79127128	     28.73809203	     28.73809203	     15.70034508	     -6.34100766	     -6.25287227	     -9.35367514	      2.44144383	      0.20548685	      2.03275488	    -14.59385637	     -2.21794453	     43.18341518	     45.66421989	      0.00000000	      0.00000000	     13.70182619	    -13.43040831	     -9.23200256	     64.28819428	     46.97550161	      0.00000000	      0.00000000
     18.50828571	     -1.66104628	     -3.56766666	     -1.59925815	      1.07919135	      0.93286784	      0.47411161	     15.72679758	     -0.24664186	    -10.70080357	     19.14953830	     19.14953830	      7.56662674	      3.37104640	     -1.82395011	      4.45087725	    -10.71034398	     -8.89431944	     32.11096373	     32.11096373	     14.56018828	     -7.66378726	     -6.84052420	     -9.47860211	      2.40690044	      0.28523416	      3.64530185	    -14.66597861	     -2.23573665	     44.06589220	     45.64136947	      0.00000000	      0.00000000	     13.09336770	    -13.40235181	     -9.07325870	     63.49775785	     46.95066418	      0.00000000	      0.00000000
     18.52157143	     -1.65928017	     -3.55876585	     -1.41783850	      1.07903274	      0.93318039	      0.47740614	     15.21557117	     -0.09332263	    -11.08817275	     18.96089262	     18.96089262	      7.84980817	      3.77205498	     -1.98874788	      6.25188137	    -11.17842711	     -7.70509759	     35.72744373	     35.72744373	     12.98982191	     -9.32872734	     -7.62991862	     -9.43916709	      2.37897370	      0.18778640	      5.24692201	    -14.77935218	     -2.15247816	     45.28986265	     45.60054937	      0.00000000	      0.00000000	     12.45271834	    -13.39311915	     -8.96018579	     62.23106869	     46.92292270	      0.00000000	      0.00000000
     18.53485714	     -1.44392955	     -3.62289308	     -1.23204745	      1.07860292	      0.93355320	      0.48056423	     14.52114805	      0.14018367	    -11.38047737	     18.83393693	     18.83393693	      8.21348161	      4.05734185	     -2.14122266	      7.96110685	    -11.73248197	     -6.62624403	     39.50095144	     39.50095144	     11.43380167	    -10.56595061	     -8.11016720	     -9.73686080	      2.38077816	      0.39306329	      7.00611907	    -15.04389406	     -2.14684786	     46.34396420	     45.57149120	      0.00000000	      0.00000000	     12.10620832	    -13.21728731	     -8.83706951	     61.35388815	     46.89989725	      0.00000000	      0.00000000
     18.54814286	     -1.64150195	     -3.68551524	     -0.87373409	      1.07774762	      0.93318768	      0.48326428	     14.33771108	      0.29894542	    -11.90331842	     18.78453350	     18.78453350	      8.52685760	      4.38704341	     -2.42054604	     10.37624242	    -12.09977727	     -5.08904621	     43.38347419	     43.38347419	      9.48376881	    -12.29812812	     -8.60905389	     -9.46791588	      2.44384731	      0.11038834	      8.50818266	    -15.29604482	     -1.81487633	     48.17421683	     45.49691444	      0.00000000	      0.00000000	     11.55772821	    -13.14809467	     -8.74782173	     59.31740184	     46.86437547	      0.00000000	      0.00000000
     18.56142857	     -1.63678220	     -3.90696270	     -0.48375377	      1.07666778	      0.93291013	      0.48579465	     13.95180190	      0.63592960	    -12.36324858	     18.73261279	     18.73261279	      8.85985029	      4.55072249	     -2.62205462	     12.66311623	    -12.63245268	     -3.69671319	     47.24544321	     47.24544321	      7.80547006	    -13.35238644	     -8.64973431	     -9.51764126	      2.72563621	      0.20648518	     10.09933744	    -15.72927794	     -1.64002817	     49.59745373	     45.44637790	      0.00000000	      0.00000000	     11.12583688	    -12.86584407	     -8.61215951	     57.91851126	     46.83314550	      0.00000000	      0.00000000
     18.57471429	     -1.66530859	     -4.12111623	     -0.07685490	      1.07536365	      0.93253784	      0.48809445	     13.65280489	      0.95187910	    -12.79088817	     18.72984946	     18.72984946	      9.19434869	      4.62667539	     -2.82020710	     14.98887677	    -13.06788694	     -2.34799558	     50.84038801	     50.84038801	      6.30665495	    -14.14780986	     -8.26898586	     -9.57846818	      2.97997984	      0.25073832	     11.86920747	    -16.19793024	     -1.48763768	     51.10513364	     45.39540276	      0.00000000	      0.00000000	     10.72129405	    -12.59951492	     -8.47255363	     56.48584277	     46.80114733	      0.00000000	      0.00000000
     18.58800000	     -1.76040734	     -4.19228821	      0.35107482	      1.07385995	      0.93212111	      0.49008594	     13.46986421	      1.07977765	    -13.26803391	     18.77027679	     18.77027679	      9.45509457	      4.72563576	     -3.32003055	     17.47961913	    -13.21302563	     -1.03330589	     54.38223973	     54.38223973	      6.46492654	    -13.97143302	     -4.02223347	     -9.51202435	      3.12327925	      0.93466182	     12.22277639	    -17.84457028	      0.62016361	     55.46554437	     45.16259155	      0.00000000	      0.00000000	     11.73703742	    -11.80482823	     -8.41251242	     51.68443388	     46.75168472	      0.00000000	      0.00000000
     18.60128571	     -1.82716849	     -4.38624795	      0.81148661	      1.07230493	      0.93177986	      0.49191136	     13.22139577	      1.36732292	    -13.66177058	     18.71091701	     18.71091701	      9.65981461	      4.63481691	     -3.39543662	     19.74834202	    -13.49266571	      0.08256476	     57.15281106	     57.15281106	      5.49782034	    -14.32698332	     -3.27150311	     -9.47959586	      3.40155436	      0.82907459	     14.09838210	    -18.12411327	      0.38552318	     56.72189877	     45.14093353	      0.00000000	      0.00000000	     10.92190221	    -11.66123161	     -8.22271010	     50.64734560	     46.71573676	      0.00000000	      0.00000000
     18.61457143	     -1.81313616	     -4.56749233	      1.26108564	      1.07077283	      0.93166006	      0.49370051	     12.86932834	      1.66210208	    -14.00984235	     18.62766176	     18.62766176	     10.03849521	      4.56626853	     -3.52304905	     21.76528643	    -13.73921042	      1.00590604	     59.28673611	     59.28673611	      4.78213826	    -14.62165876	     -2.50030185	     -9.62391511	      3.55384820	      0.93984973	     16.05955651	    -18.60646175	      0.22896970	     57.90896305	     45.11798891	      0.00000000	      0.00000000	     10.20161127	    -11.35774576	     -8.07425101	     49.58354418	     46.68386086	      0.00000000	      0.00000000
